#!OML:ASF I:\Actors\actors\Patient Classification 2\Patient 1\Session 1\actor1.ASF
:FULLY-SPECIFIED
:DEGREES
629
root -0.522437 18.7549 5.35421 3.25488 -2.91474 -2.8748
lowerback 4.39049 2.45581 -5.38665
upperback 0.771195 2.97388 -2.05978
thorax -1.82998 1.50751 0.713873
lowerneck -13.9295 -2.73937 -1.45576
upperneck 34.1544 -5.37082 4.95065
head 14.1981 -1.84762 1.39693
rclavicle -5.24792e-014 4.13472e-014
rhumerus -21.7516 37.7448 -95.5443
rradius 86.0323
rwrist 15.522
rhand -8.89911 -63.9903
rfingers 7.12502
rthumb 17.0436 -266.737
lclavicle -5.24792e-014 4.13472e-014
lhumerus -9.41355 -28.7923 84.4796
lradius 79.8101
lwrist -4.74595
lhand 15.9777 -25.5119
lfingers 7.12502
lthumb 40.7712 -0.523243
rfemur 0 0 0
rtibia 0
rfoot 0 0
rtoes 0
lfemur -7.37716 -7.69529 -11.8871
ltibia 23.0181
lfoot -24.6955 17.0359
ltoes -53.4125
630
root -0.521792 18.7555 5.35393 3.30694 -2.90165 -2.89736
lowerback 4.31556 2.45952 -5.37312
upperback 0.775629 2.98598 -2.02559
thorax -1.78524 1.51268 0.744258
lowerneck -13.9214 -2.75705 -1.36705
upperneck 34.0301 -5.39184 4.88373
head 14.1354 -1.8564 1.34891
rclavicle 2.22639e-014 7.95139e-015
rhumerus -21.6109 37.7309 -95.3817
rradius 85.9524
rwrist 15.4908
rhand -8.94933 -63.9125
rfingers 7.12502
rthumb 16.9952 -266.811
lclavicle 2.22639e-014 7.95139e-015
lhumerus -9.40263 -28.8211 84.5948
lradius 79.7987
lwrist -4.76907
lhand 16.0059 -25.5736
lfingers 7.12502
lthumb 40.7976 -0.593284
rfemur 0 0 0
rtibia 0
rfoot 0 0
rtoes 0
lfemur -7.44164 -7.6636 -11.8501
ltibia 23.0226
lfoot -24.7372 16.9665
ltoes -53.3039
631
root -0.521157 18.7546 5.35496 3.31875 -2.92495 -2.91078
lowerback 4.28126 2.48418 -5.31743
upperback 0.779317 3.02436 -2.01291
thorax -1.76212 1.53107 0.725624
lowerneck -13.8466 -2.77569 -1.37772
upperneck 33.8841 -5.41087 4.89706
head 14.0544 -1.86802 1.35186
rclavicle 2.48481e-014 -3.65764e-014
rhumerus -21.4982 37.6259 -95.2658
rradius 85.9433
rwrist 15.6147
rhand -8.85737 -63.8115
rfingers 7.12502
rthumb 17.0837 -266.92
lclavicle 2.48481e-014 -3.65764e-014
lhumerus -9.40463 -28.9099 84.687
lradius 79.7967
lwrist -4.77902
lhand 16.0629 -25.5782
lfingers 7.12502
lthumb 40.8512 -0.614653
rfemur 0 0 0
rtibia 0
rfoot 0 0
rtoes 0
lfemur -7.47488 -7.43832 -11.8365
ltibia 23.0247
lfoot -24.5011 16.996
ltoes -53.4272
632
root -0.519823 18.7527 5.35729 3.28656 -2.99918 -2.90161
lowerback 4.27076 2.51372 -5.23335
upperback 0.797277 3.06859 -2.04278
thorax -1.73404 1.55182 0.646584
lowerneck -13.7699 -2.79481 -1.44429
upperneck 33.7842 -5.45535 5.01711
head 14.0013 -1.88302 1.40433
rclavicle -1.19271e-015 2.38542e-014
rhumerus -21.3874 37.5107 -95.2666
rradius 85.9699
rwrist 15.6686
rhand -8.86241 -63.7749
rfingers 7.12502
rthumb 17.0789 -266.956
lclavicle -1.19271e-015 2.38542e-014
lhumerus -9.42603 -29.0256 84.6716
lradius 79.8331
lwrist -4.75952
lhand 16.0629 -25.5647
lfingers 7.12502
lthumb 40.8512 -0.601218
rfemur 0 0 0
rtibia 0
rfoot 0 0
rtoes 0
lfemur -7.45628 -7.14965 -11.8748
ltibia 23.0082
lfoot -24.0764 17.2146
ltoes -53.5391
633
root -0.523902 18.7512 5.36188 3.1753 -3.09813 -2.89988
lowerback 4.31308 2.53721 -5.25516
upperback 0.823043 3.09687 -2.03905
thorax -1.7339 1.56559 0.659413
lowerneck -13.6398 -2.7933 -1.47793
upperneck 33.689 -5.45584 5.07112
head 13.9327 -1.88483 1.43198
rclavicle -3.1408e-014 1.59028e-015
rhumerus -21.2982 37.4195 -95.3355
rradius 85.9496
rwrist 15.7779
rhand -8.77074 -63.563
rfingers 7.12502
rthumb 17.1671 -267.175
lclavicle -3.1408e-014 1.59028e-015
lhumerus -9.50438 -29.0821 84.6558
lradius 79.8993
lwrist -4.69394
lhand 16.0543 -25.4806
lfingers 7.12502
lthumb 40.8431 -0.514573
rfemur 0 0 0
rtibia 0
rfoot 0 0
rtoes 0
lfemur -7.31004 -7.0075 -11.8944
ltibia 23.0138
lfoot -23.9309 17.334
ltoes -53.8347
634
root -0.539316 18.7491 5.36889 2.97538 -3.16338 -2.90118
lowerback 4.41349 2.55374 -5.49599
upperback 0.864741 3.10334 -1.95493
thorax -1.76464 1.57 0.875087
lowerneck -13.5079 -2.7932 -1.50227
upperneck 33.6162 -5.42297 5.01202
head 13.8672 -1.88572 1.41809
rclavicle 1.27222e-014 7.95139e-015
rhumerus -21.2524 37.3982 -95.4157
rradius 85.9418
rwrist 15.8734
rhand -8.58907 -63.3766
rfingers 7.12502
rthumb 17.342 -267.377
lclavicle 1.27222e-014 7.95139e-015
lhumerus -9.62763 -29.0618 84.6975
lradius 79.9833
lwrist -4.65368
lhand 16.0989 -25.3859
lfingers 7.12502
lthumb 40.885 -0.433038
rfemur 0 0 0
rtibia 0
rfoot 0 0
rtoes 0
lfemur -7.02862 -6.88681 -11.8614
ltibia 23.0198
lfoot -23.9507 17.191
ltoes -53.7767
